<?xml version="1.0" standalone="no"?>
<!DOCTYPE svg PUBLIC "-//W3C//DTD SVG 20010904//EN"
 "http://www.w3.org/TR/2001/REC-SVG-20010904/DTD/svg10.dtd">
<svg version="1.0" xmlns="http://www.w3.org/2000/svg"
 width="2043.000000pt" height="2043.000000pt" viewBox="0 0 2043.000000 2043.000000"
 preserveAspectRatio="xMidYMid meet">
<metadata>
Created by potrace 1.11, written by Peter Selinger 2001-2013
</metadata>
<g transform="translate(0.000000,2043.000000) scale(0.100000,-0.100000)"
fill="#000000" stroke="none">
<path d="M3428 20292 c-92 -96 -221 -243 -270 -310 -24 -31 -46 -59 -49 -62
-13 -11 -119 -161 -181 -255 -91 -140 -170 -279 -238 -420 -111 -231 -157
-349 -233 -600 -16 -52 -56 -205 -63 -240 -2 -11 -9 -45 -15 -75 -7 -30 -13
-64 -14 -75 -2 -11 -8 -48 -14 -82 -7 -34 -14 -82 -16 -105 -2 -24 -7 -59 -10
-78 -16 -110 -27 -305 -27 -490 0 -228 13 -412 43 -645 6 -44 13 -93 15 -110
2 -16 5 -40 8 -51 2 -12 7 -39 11 -60 11 -72 16 -99 41 -212 13 -63 26 -127
29 -144 3 -17 8 -34 10 -38 2 -4 7 -20 9 -36 17 -89 173 -608 211 -699 7 -16
34 -88 60 -160 56 -151 163 -408 229 -549 25 -54 46 -102 46 -107 0 -10 -157
168 -259 294 -136 167 -321 425 -438 607 -140 219 -341 600 -437 830 -27 63
-54 129 -61 145 -77 181 -228 669 -259 838 -2 12 -9 40 -14 62 -6 22 -13 57
-16 77 -3 21 -10 57 -15 80 -5 24 -12 63 -15 88 -3 25 -8 55 -10 67 -3 11 -7
43 -11 70 -4 26 -9 62 -12 78 -5 35 -10 76 -18 165 -4 36 -8 79 -10 96 -19
156 -28 759 -13 912 5 59 -4 86 -15 40 -2 -13 -27 -88 -55 -168 -73 -213 -90
-266 -172 -560 -16 -58 -49 -193 -55 -229 -3 -19 -8 -37 -10 -41 -2 -4 -7 -21
-10 -38 -3 -18 -12 -63 -20 -100 -7 -38 -17 -90 -21 -118 -3 -27 -8 -52 -10
-56 -2 -3 -7 -30 -10 -60 -3 -29 -7 -60 -9 -68 -2 -8 -7 -42 -11 -75 -3 -33
-7 -62 -9 -65 -2 -3 -6 -46 -10 -95 -4 -50 -9 -92 -10 -95 -5 -9 -18 -310 -19
-435 0 -119 12 -406 18 -442 2 -10 7 -54 11 -97 4 -43 9 -88 11 -100 2 -12 7
-40 10 -62 2 -23 7 -53 9 -65 9 -43 15 -75 19 -110 6 -39 13 -73 20 -97 3 -9
7 -28 10 -42 21 -123 136 -500 206 -675 69 -174 184 -411 283 -584 63 -110
224 -362 280 -436 18 -24 41 -56 52 -71 11 -15 39 -51 63 -80 23 -29 42 -55
42 -58 0 -24 -369 195 -490 290 -205 162 -378 330 -513 499 -27 33 -55 69 -64
79 -27 33 -190 279 -213 321 -12 22 -30 55 -41 73 -11 19 -42 79 -70 135 -28
56 -54 110 -59 119 -62 114 -248 640 -274 773 -15 77 -41 163 -47 153 -6 -13
-24 -125 -33 -208 -3 -25 -7 -61 -10 -80 -28 -195 -39 -636 -22 -865 16 -222
60 -489 111 -680 23 -84 77 -260 92 -295 3 -8 7 -17 7 -20 4 -23 91 -216 145
-323 257 -504 624 -912 1179 -1310 51 -37 105 -74 120 -82 26 -14 87 -62 67
-52 -5 3 -37 8 -70 11 -33 3 -71 8 -85 11 -14 3 -42 7 -63 10 -21 3 -86 16
-145 30 -90 20 -139 34 -287 79 -5 2 -23 8 -38 14 -16 7 -32 12 -36 12 -4 0
-50 18 -102 41 -368 158 -644 344 -936 630 -97 96 -136 128 -119 101 3 -5 12
-42 21 -83 9 -41 18 -82 20 -91 37 -168 155 -537 229 -717 255 -621 599 -1162
1100 -1731 109 -123 430 -449 556 -565 107 -99 173 -157 230 -205 29 -25 58
-50 64 -55 6 -6 61 -51 121 -100 61 -49 115 -94 122 -100 6 -5 24 -20 40 -32
52 -40 108 -83 118 -91 18 -15 278 -206 322 -238 41 -29 42 -31 83 -179 179
-641 456 -1244 839 -1825 30 -47 58 -87 61 -90 3 -3 43 -59 89 -125 47 -66 87
-122 90 -125 3 -3 20 -23 36 -45 33 -45 28 -38 122 -154 37 -46 80 -98 94
-117 14 -18 45 -55 70 -82 24 -27 73 -82 109 -123 134 -153 486 -497 655 -641
17 -14 56 -49 89 -77 99 -86 344 -274 476 -365 69 -47 130 -90 135 -94 39 -31
393 -240 470 -277 22 -11 42 -22 45 -25 11 -11 256 -127 380 -180 214 -91 621
-228 725 -244 6 -1 16 -5 23 -9 6 -5 12 -6 12 -3 0 2 15 0 33 -5 41 -13 61
-17 122 -29 166 -33 163 -15 23 -152 -181 -178 -446 -401 -629 -530 -412 -290
-852 -532 -1334 -733 -88 -36 -169 -70 -180 -75 -11 -5 -63 -24 -115 -43 -52
-19 -104 -38 -115 -42 -48 -18 -181 -66 -195 -70 -8 -2 -100 -31 -205 -65
-104 -33 -199 -62 -210 -64 -11 -3 -51 -14 -90 -25 -38 -12 -108 -30 -155 -42
-47 -11 -92 -23 -100 -26 -19 -8 -10 -6 -122 -32 -54 -12 -98 -25 -98 -28 0
-3 21 -45 47 -92 133 -246 299 -451 534 -662 189 -169 505 -361 799 -484 74
-31 144 -61 155 -66 46 -21 400 -133 455 -144 8 -2 53 -13 100 -25 47 -12 92
-23 100 -25 23 -5 173 -36 195 -41 11 -2 36 -7 55 -10 19 -3 67 -11 105 -19
39 -8 108 -19 155 -25 46 -6 87 -13 90 -15 3 -1 39 -6 80 -10 41 -4 89 -9 105
-11 184 -20 678 -27 825 -11 41 5 93 10 115 12 34 4 240 42 315 59 68 15 217
64 320 106 l115 45 60 81 c33 45 92 125 130 178 39 54 76 105 83 114 7 9 96
132 198 272 101 140 188 258 193 263 4 4 71 -23 147 -61 321 -161 512 -228
784 -272 69 -12 136 -23 150 -25 14 -2 43 -7 65 -10 22 -4 63 -22 90 -40 132
-90 184 -128 229 -171 l49 -46 -62 -39 c-100 -66 -195 -191 -215 -284 -28
-129 -27 -165 10 -348 19 -95 37 -180 40 -190 6 -21 17 -15 20 10 2 10 11 35
20 58 56 127 172 240 322 311 191 91 435 90 589 -3 86 -51 130 -99 173 -188
110 -230 54 -472 -170 -735 -55 -64 -86 -110 -74 -110 4 0 15 6 23 14 9 7 58
30 110 51 249 99 421 236 505 402 22 44 64 201 71 268 1 11 -3 46 -10 78 -6
31 -10 59 -8 61 8 7 97 -25 141 -50 119 -70 168 -139 211 -300 34 -126 35
-171 7 -319 -2 -11 -7 -45 -11 -75 -4 -30 -14 -66 -22 -78 -29 -47 -7 -29 51
41 154 184 225 310 267 467 17 66 20 219 4 256 -11 27 -10 35 10 68 47 78 116
132 200 158 96 30 285 9 407 -45 140 -62 229 -201 229 -356 0 -82 -22 -156
-77 -260 -24 -46 -42 -86 -40 -88 2 -2 12 0 23 6 10 5 36 18 58 27 187 77 294
167 359 299 44 88 61 197 41 269 -7 26 -6 29 11 22 51 -19 132 -77 180 -129
78 -84 117 -166 159 -332 l23 -90 2 50 c2 50 3 58 16 125 3 19 8 45 9 57 2 12
6 34 9 50 4 15 8 44 11 63 3 19 7 46 10 60 4 14 7 55 9 92 9 181 -90 369 -264
503 -32 25 -62 45 -65 45 -4 0 -19 8 -33 18 -41 28 -205 97 -362 152 -77 27
-143 50 -148 50 -18 1 -198 63 -302 103 -137 54 -220 91 -357 160 l-103 51
-31 96 c-38 114 -92 255 -125 328 -13 29 -24 54 -24 56 0 15 -152 326 -238
486 -136 254 -401 701 -560 943 -24 37 -42 70 -40 72 9 9 599 -222 756 -296
35 -16 65 -29 68 -29 11 0 255 -115 424 -200 288 -144 279 -138 319 -203 115
-185 239 -334 364 -435 72 -59 107 -82 125 -82 28 0 185 317 239 482 21 65 41
118 44 118 9 0 43 -82 63 -150 24 -80 30 -160 17 -232 -6 -35 -13 -76 -16 -93
-3 -16 -14 -79 -25 -139 -11 -60 -20 -113 -20 -117 0 -9 106 18 140 36 14 7
43 21 65 30 22 10 85 42 140 72 313 172 522 402 547 602 12 94 15 276 6 316
-4 17 -10 43 -13 60 -25 120 -140 313 -271 454 -34 36 -41 50 -36 70 15 61 6
206 -17 281 -65 214 -197 400 -503 711 -210 213 -400 374 -595 504 -40 26 -73
49 -73 51 0 2 30 20 68 39 114 60 148 81 248 150 256 179 478 384 714 661 56
65 171 215 244 319 72 102 114 168 178 285 14 25 155 277 315 560 159 283 301
535 315 560 158 283 398 705 426 749 128 204 210 321 341 486 94 118 107 134
206 243 153 170 372 375 560 527 137 110 161 128 720 529 427 307 545 392 573
414 10 6 145 104 302 217 369 264 339 238 260 231 -36 -4 -90 -8 -120 -11 -30
-2 -82 -7 -115 -10 -95 -8 -154 -13 -235 -20 -41 -3 -91 -8 -110 -10 -19 -3
-69 -8 -110 -10 -41 -3 -93 -7 -115 -10 -41 -5 -124 -12 -230 -20 -33 -3 -87
-7 -120 -10 -59 -5 -58 -4 65 38 319 111 605 249 875 421 44 28 85 54 90 58 6
5 62 47 125 95 134 102 151 116 245 203 87 81 184 180 241 245 24 28 57 66 74
85 63 72 188 244 273 378 77 120 252 452 299 567 42 102 48 118 48 124 0 3
-53 -47 -117 -110 -286 -282 -542 -474 -808 -604 -106 -52 -282 -116 -354
-129 l-34 -6 69 72 c38 40 72 75 75 78 50 43 389 507 389 533 0 3 18 34 40 70
39 65 181 350 184 371 1 6 4 16 8 21 14 23 89 228 126 350 43 135 71 240 98
366 8 41 17 83 20 94 2 11 7 36 10 55 7 44 12 77 20 115 20 106 30 216 19 203
-6 -7 -71 -91 -144 -186 -73 -96 -140 -183 -149 -194 -10 -11 -24 -28 -32 -38
-8 -10 -28 -35 -45 -56 -314 -398 -649 -722 -830 -804 -27 -12 -54 -25 -60
-28 -5 -3 -5 1 1 9 6 8 46 59 88 114 42 55 80 105 84 110 121 157 341 499 457
709 239 435 431 968 491 1366 3 19 7 46 9 60 2 14 7 45 10 70 3 25 8 61 10 80
25 189 25 593 0 790 -44 340 -127 663 -254 980 -23 58 -46 109 -52 114 -5 6
-9 -12 -9 -50 0 -91 -14 -244 -46 -504 -4 -31 -59 -328 -70 -372 -10 -44 -14
-59 -39 -153 -114 -438 -294 -859 -538 -1263 -93 -155 -242 -375 -326 -483
-20 -25 -47 -61 -61 -79 -14 -19 -41 -52 -60 -75 -19 -23 -51 -61 -72 -86
-170 -206 -461 -500 -722 -730 -21 -19 -44 -39 -50 -44 -6 -6 -76 -64 -156
-128 -80 -65 -156 -127 -168 -137 -13 -11 -26 -20 -28 -20 -3 0 -14 -8 -25
-19 -34 -32 -357 -263 -499 -358 -397 -264 -818 -515 -1410 -838 -129 -71
-249 -136 -267 -146 -18 -10 -61 -34 -95 -52 -123 -67 -173 -94 -208 -114 -19
-11 -116 -63 -215 -117 -99 -53 -187 -101 -195 -106 -17 -10 -285 -155 -410
-222 -141 -76 -237 -135 -415 -256 -149 -101 -402 -282 -445 -319 -8 -7 -69
-56 -135 -109 -103 -84 -248 -208 -375 -323 -182 -165 -498 -500 -640 -677 -8
-11 -42 -53 -76 -94 -99 -122 -227 -298 -332 -457 -128 -192 -171 -264 -312
-518 -97 -174 -266 -541 -346 -753 -21 -56 -41 -102 -44 -102 -3 0 -21 28 -39
63 -54 98 -174 292 -183 295 -4 2 -8 8 -8 13 0 9 -166 249 -179 259 -4 3 -14
17 -23 32 -16 24 -184 238 -240 304 -304 361 -644 713 -1082 1119 -71 66 -140
128 -205 185 -41 36 -79 70 -85 75 -6 6 -45 39 -86 75 -41 36 -77 67 -80 70
-3 3 -32 28 -65 55 -33 28 -62 53 -65 56 -3 3 -61 52 -130 108 -69 57 -134
110 -145 119 -11 10 -76 62 -145 117 -69 55 -127 102 -130 105 -3 3 -50 41
-105 85 -55 44 -109 87 -120 97 -11 9 -119 97 -240 194 -201 163 -499 404
-585 474 -19 15 -183 148 -365 295 -432 349 -477 387 -515 425 -3 3 -57 52
-120 110 -268 245 -714 681 -867 846 -15 17 -69 75 -119 130 -409 443 -815
975 -1069 1399 -227 379 -418 798 -541 1187 -38 119 -118 428 -128 489 -3 20
-8 42 -10 50 -6 17 -12 49 -27 144 -6 39 -12 81 -15 95 -12 69 -29 213 -41
360 -15 175 -7 769 11 866 2 11 7 51 10 89 4 39 12 99 17 135 6 36 13 83 16
105 4 32 42 228 69 353 25 118 138 516 169 595 4 9 5 17 3 17 -2 0 -34 -31
-70 -68z"/>
</g>
</svg>
